<svg id="Group_55033" data-name="Group 55033" xmlns="http://www.w3.org/2000/svg" width="193.844" height="40" viewBox="0 0 193.844 40">
  <g id="Group_27399" data-name="Group 27399">
    <path id="Path_216609" data-name="Path 216609" d="M21.55,30.184,19.385,24.17H9.311L7.147,30.184h-5.9L11.79,3.2h5.352L27.61,30.184ZM15.724,14.147c-.55-1.58-1.1-3.2-1.376-4.2-.276,1-.827,2.621-1.377,4.2l-1.773,4.9h6.3Z" transform="translate(-1.245 -2.083)"/>
    <path id="Path_216610" data-name="Path 216610" d="M90.7,42.764v-1.35a6.844,6.844,0,0,1-4.84,1.774c-5.272,0-7.633-3.547-7.633-9.25V22.527h5.431V33.474c0,3.623,1.259,4.7,3.5,4.7S90.7,37.1,90.7,33.59V22.527h5.431V42.764Z" transform="translate(-50.793 -14.663)"/>
    <path id="Path_216611" data-name="Path 216611" d="M149.095,27.291a7.349,7.349,0,0,1-4.21,1.234c-3.346,0-5.51-2.545-5.51-6.092V2.66L144.8,0V7.864h4.958v5.01H144.8v8.133c0,1.927.708,2.428,2.006,2.428.985,0,1.732-.423,3.069-1.541Z" transform="translate(-90.149)"/>
    <path id="Path_216612" data-name="Path 216612" d="M181.606,42.4c-5.393,0-9.327-4.317-9.327-10.524s3.934-10.562,9.327-10.562,9.365,4.356,9.365,10.562S187,42.4,181.606,42.4Zm0-15.959c-2.6,0-3.817,2.313-3.817,5.435s1.22,5.4,3.817,5.4,3.855-2.583,3.855-5.4c0-3.084-1.259-5.434-3.855-5.434Z" transform="translate(-111.328 -13.871)"/>
    <path id="Path_216613" data-name="Path 216613" d="M250.963,30.184,240.851,15.458c-.667-1-1.573-2.35-1.928-3.045,0,1,.079,4.395.079,5.9V30.184H233.57V3.2h5.274L248.6,17.462c.67,1,1.576,2.351,1.929,3.046,0-1-.079-4.394-.079-5.9V3.2h5.431V30.184Z" transform="translate(-150.776 -2.083)"/>
    <path id="Path_216614" data-name="Path 216614" d="M317.6,41.958v-1.35a6.679,6.679,0,0,1-4.645,1.774c-3.855,0-7.712-2.313-7.712-7.209,0-4.47,3.7-6.707,8.383-6.707a8.717,8.717,0,0,1,3.975.81v-1c0-1.426-.985-2.583-2.952-2.583a10.374,10.374,0,0,0-5.666,1.348l-2.087-3.7a14.121,14.121,0,0,1,7.754-2.043c5,0,8.38,2.545,8.38,7.094V41.958Zm0-8.483a6.4,6.4,0,0,0-3.778-.847c-2.047,0-3.149.925-3.149,2.543,0,1.426.827,2.7,3.149,2.7a4.472,4.472,0,0,0,3.778-1.85Z" transform="translate(-196.905 -13.858)"/>
    <path id="Path_216615" data-name="Path 216615" d="M375.223,27.291a7.35,7.35,0,0,1-4.211,1.234c-3.346,0-5.51-2.545-5.51-6.092V2.66L370.933,0V7.864h4.958v5.01h-4.958v8.133c0,1.927.709,2.428,2.006,2.428.985,0,1.732-.423,3.069-1.541Z" transform="translate(-235.692)"/>
    <path id="Path_216616" data-name="Path 216616" d="M404.258,42.764V22.527h5.432V42.764Z" transform="translate(-260.636 -14.663)"/>
    <path id="Path_216617" data-name="Path 216617" d="M435.673,42.4c-5.392,0-9.327-4.317-9.327-10.524s3.934-10.562,9.327-10.562,9.366,4.356,9.366,10.562S441.063,42.4,435.673,42.4Zm0-15.959c-2.6,0-3.817,2.313-3.817,5.435s1.22,5.4,3.817,5.4,3.855-2.583,3.855-5.4c0-3.084-1.26-5.434-3.855-5.434Z" transform="translate(-274.853 -13.871)"/>
    <path id="Path_216618" data-name="Path 216618" d="M497.566,41.971V31.024c0-3.624-1.259-4.7-3.5-4.7s-3.543,1.08-3.543,4.588V41.971H485.09V21.734h5.431v1.349a6.845,6.845,0,0,1,4.84-1.774c5.274,0,7.636,3.547,7.636,9.25V41.971Z" transform="translate(-312.662 -13.871)"/>
  </g>
  <path id="Path_216619" data-name="Path 216619" d="M539.7,76.033a1.166,1.166,0,1,1,1.19-1.166,1.131,1.131,0,0,1-.342.831A1.18,1.18,0,0,1,539.7,76.033Zm0-2.145a.978.978,0,1,0,1,.977.949.949,0,0,0-.287-.7.991.991,0,0,0-.711-.281Zm.267,1.079.267.514h-.261l-.254-.491h-.25v.491h-.221V74.208h.57a.386.386,0,0,1,.3.1.37.37,0,0,1,.123.288.363.363,0,0,1-.277.375Zm-.155-.549h-.342v.362h.343c.119,0,.208-.055.208-.181a.179.179,0,0,0-.061-.137A.186.186,0,0,0,539.808,74.417Z" transform="translate(-347.043 -47.973)"/>
  <path id="Path_216620" data-name="Path 216620" d="M317.8,92.124q-8.664,0-17.327.175c-8.087.169-16.177.4-24.258.8-7.864.388-15.726.807-23.581,1.374q-9.214.667-18.42,1.445l.521-.028q9.913-.539,19.827-.98c7.583-.336,15.173-.487,22.76-.647,4.682-.1,9.365-.134,14.049-.134q4.69,0,9.379.039,11.287.084,22.569.482,5.154.179,10.305.446c1.367.07,2.734.144,4.1.232l2.2.14c.2.013.48.059.743.059.421,0,.813-.118.841-.676l.062-1.242c0-.051,0-.1,0-.151,0-.521-.162-.9-.729-.935-.674-.047-1.352-.052-2.026-.075q-2.228-.08-4.457-.136-5.256-.129-10.515-.169-3.024-.02-6.047-.02" transform="translate(-151.194 -59.966)"/>
  <path id="Path_216621" data-name="Path 216621" d="M342.61,105.056q-2.63,0-5.259.024c-5.987.055-11.974.131-17.961.307q-7.02.206-14.038.489l.4-.006q7.549-.1,15.1-.14,1.034,0,2.069,0c5.083,0,10.167.084,15.249.163,5.939.092,11.878.3,17.812.545q8.579.349,17.145.91,3.914.254,7.823.567c1.038.082,2.075.168,3.112.262l1.669.151c.171.016.406.06.624.06.3,0,.563-.082.6-.432q.038-.415.077-.83c0-.05.007-.1.007-.145a.513.513,0,0,0-.124-.422.536.536,0,0,0-.409-.179c-.511-.049-1.027-.07-1.539-.1q-1.692-.111-3.386-.207-3.993-.223-7.99-.386-8.884-.355-17.773-.5c-4.4-.07-8.8-.116-13.2-.116" transform="translate(-196.978 -68.384)" fill="#eb6a92"/>
</svg>
